<svg width="578" height="147" viewBox="0 0 578 147" fill="none" xmlns="http://www.w3.org/2000/svg">
<path opacity="0.15" d="M79.2969 156.898H40.1367L32.5195 186H2.14844L46.582 43.8125H72.8516L117.578 186H86.9141L79.2969 156.898ZM46.3867 132.973H72.9492L59.668 82.2891L46.3867 132.973ZM159.668 162.172H210.059V186H130.957V43.8125H159.668V162.172ZM255.371 162.172H305.762V186H226.66V43.8125H255.371V162.172ZM416.211 127.699C416.211 146.775 411.686 161.586 402.637 172.133C393.652 182.68 381.152 187.953 365.137 187.953C349.186 187.953 336.654 182.745 327.539 172.328C318.424 161.846 313.802 147.198 313.672 128.383V104.066C313.672 84.5352 318.197 69.3008 327.246 58.3633C336.296 47.3607 348.861 41.8594 364.941 41.8594C380.762 41.8594 393.229 47.263 402.344 58.0703C411.458 68.8125 416.081 83.9167 416.211 103.383V127.699ZM387.402 103.871C387.402 91.0456 385.579 81.5078 381.934 75.2578C378.288 69.0078 372.624 65.8828 364.941 65.8828C357.324 65.8828 351.693 68.9102 348.047 74.9648C344.401 80.9544 342.513 90.1016 342.383 102.406V127.699C342.383 140.134 344.238 149.314 347.949 155.238C351.66 161.098 357.389 164.027 365.137 164.027C372.624 164.027 378.19 161.163 381.836 155.434C385.482 149.639 387.337 140.688 387.402 128.578V103.871ZM466.797 186H438.086V43.8125H466.797V186ZM520.703 162.172H579.297V186H487.109V168.715L545.117 67.7383H486.523V43.8125H578.223V60.707L520.703 162.172Z" transform="translate(-2 -41)" fill="#98AD38"/>
</svg>
