<svg width="20" height="12" viewBox="0 0 20 12" fill="none" xmlns="http://www.w3.org/2000/svg">
<path d="M19.8002 1.20233L18.7982 0.200471C18.6647 0.0666832 18.5109 -2.14212e-09 18.3371 -2.14212e-09C18.1636 -2.14212e-09 18.0099 0.0666832 17.8764 0.200471L10.0001 8.07633L2.12418 0.200682C1.9906 0.0668939 1.83688 0.000210461 1.66322 0.000210461C1.48949 0.000210461 1.33577 0.0668939 1.20226 0.200682L0.200471 1.20262C0.0666833 1.33612 0 1.48985 0 1.66357C0 1.83716 0.0668939 1.99088 0.200471 2.12439L9.53915 11.4633C9.67266 11.5969 9.82645 11.6636 10.0001 11.6636C10.1738 11.6636 10.3273 11.5969 10.4607 11.4633L19.8002 2.12439C19.9337 1.99081 20 1.83709 20 1.66357C20 1.48985 19.9337 1.33612 19.8002 1.20233Z" fill="white"/>
</svg>
