<svg width="18" height="18" viewBox="0 0 18 18" fill="none" xmlns="http://www.w3.org/2000/svg">
<path d="M17.1867 0H0.812235C0.364485 0 0 0.363374 0 0.811125V17.1889C0 17.6355 0.364485 18 0.812235 18H17.1866C17.6355 18 18 17.6355 18 17.1889V0.811125C18 0.363374 17.6355 0 17.1867 0ZM9.00002 5.85899C10.7348 5.85899 12.141 7.26523 12.141 8.99998C12.141 10.7347 10.7348 12.141 9.00002 12.141C7.26527 12.141 5.85903 10.7347 5.85903 8.99998C5.85903 7.26523 7.26527 5.85899 9.00002 5.85899ZM15.75 15.75H2.25V7.875H3.73163C3.65399 8.23837 3.60899 8.61411 3.60899 8.99998C3.60899 11.9734 6.02774 14.391 8.99998 14.391C11.9734 14.391 14.391 11.9734 14.391 8.99998C14.391 8.61411 14.346 8.23837 14.2695 7.875H15.75V15.75H15.75ZM15.75 5.62499H12.375V2.25H15.75V5.62499Z" fill="#BDBDBD"/>
</svg>
